<svg id="dino-error" xmlns="http://www.w3.org/2000/svg" viewBox="0 0 25.88 19.87"><defs><style>.cls-1{fill:#9eff00;}</style></defs><path class="cls-1" d="M25.88,3.44V.81H23.8V.08H21.72V.79H20.26v.75h-.74V7.43H17.31v-.7H15.82v.7h-2.2v.74H12.15v.74h-.73v.74H10v.73H9.19v.74H1.85v.74H0v1.47H4.05v.74H6.26v.75H7.57c.11,0,.15,0,.15.15v.58h.76v.57c0,.12,0,.15.15.15H10.7v2.21h.73v.75h.73V20h2.92v-1.9H13.63V16.27h2.06v3h.87V20h3v-1.9H18.05V15.53h.72V14.8h1.5v.71h2.5V14.07h2.95V12.59H23.94v-.73h-.75V7.44h-.73V5.52h2.25v-1H23.37V3.44Zm-3.12,9.9v.72h-1v-.72ZM22.31,2.75V1.53h1.24V2.75Zm.24-.24h.74V1.78h-.74Z" transform="translate(0 -0.08)"/></svg>