<svg id="dino-sprite" xmlns="http://www.w3.org/2000/svg" viewBox="0 0 25.89 42.48"><defs><style>.cls-1{fill:#9eff00;}</style></defs><path id="frame-2" class="cls-1" d="M25.89,3.37V.73H23.84V0H21.76V.71H20.29v.75h-.74V7.38H17.34V6.67H15.85v.71H13.64v.74H12.18v.74h-.74v.73H10v.74H9.21v.74H1.85v.74H0v1.48H4.06V14H6.27v.75H7.58c.12,0,.16,0,.15.15v.6H8.5v.6c0,.12,0,.15.15.15h2.07v1.48h.72v.75h.74v.73H15.1V17.29H13.65v-1h2.07v3h.87V20h2.95V18H18.06V15.5h.73v-.74h1.5v.71H22.8V14h2.95V12.54H23.94v-.72h-.71V7.38H22.5V5.46h2.25v-1H23.4v-1ZM22.8,13.3V14h-1V13.3Zm.52-10.84h-.73V1.7h.73Z"/><path id="frame-1" class="cls-1" d="M25.89,25.91V23.27H23.84v-.73H21.76v.71H20.29V24h-.74v5.91H17.34V29.2H15.85v.71H13.64v.75H12.18v.74h-.74v.71H10v.74H9.21v.76H1.85v.74H0v1.48H4.06v.73H6.27v.75H7.58c.12,0,.16,0,.15.15v.6H8.5v.6c0,.12,0,.15.15.15h2V41h.74v.72h.72v.74h2.93V40.54H13.63V38.73h2.09v1.81h.87v.72h2.95V39.33H18.06V38h.73V37.3h1.5V38H22.8V36.57h2.95V35.08H23.94v-.72h-.71V29.91H22.5V28h2.25V27H23.4V25.91ZM22.8,35.83v.73h-1v-.73ZM23.32,25h-.73v-.76h.73Z"/></svg>