<svg id="dino-sprite" xmlns="http://www.w3.org/2000/svg" viewBox="0 0 43.04 67.21"><path id="frame-2" class="cls-1" d="M43,5.6V1.22H39.59V0H36.13V1.18H33.69V2.43H32.46v9.82H28.8V11.07H26.32v1.18H22.66v1.23H20.22v1.23H19v1.22H16.56v1.23H15.29v1.23H3.08v1.23H0v2.45H6.74v1.23h3.68v1.24h2.17c.19,0,.26.06.25.25v1h1.28v1c0,.19.05.24.24.24H17.8v2.47H19v1.24h1.22v1.22h4.86V28.71H22.67V27H26.1v4.94h1.45v1.2h4.9V29.92H30V25.74h1.21V24.52h2.48V25.7h4.17V23.3h4.9V20.83h-3v-1.2H38.58V12.25H37.36V9.06h3.75V7.34H38.87V5.6ZM37.86,22.08v1.21H36.15V22.08Zm.87-18H37.51V2.82h1.22Z" transform="translate(0)" fill="#9eff00;"/><path id="frame-1" class="cls-1" d="M43,39.71V35.33H39.59V34.11H36.13v1.18H33.69v1.25H32.46v9.82H28.8V45.18H26.32v1.18H22.66v1.23H20.22v1.23H19V50H16.56v1.23H15.29V52.5H3.08v1.23H0v2.45H6.74V57.4h3.68v1.24h2.17c.19,0,.26.06.25.25v1h1.28v1c0,.19.05.24.24.24h3.41v3.68H19V66H20.2v1.22h4.86V64H22.64v-3H26.1V64h1.45v1.2h4.9V62H30V59.85h1.21V58.63h2.48v1.18h4.17v-2.4h4.9V54.94h-3v-1.2H38.58V46.36H37.36V43.17h3.75V41.45H38.87V39.71ZM37.86,56.19V57.4H36.15V56.19Zm.87-18H37.51V36.93h1.22Z" transform="translate(0)" fill="#9eff00;"/></svg>